<mxfile host="app.diagrams.net" modified="2023-11-10T22:57:00.230Z" agent="Mozilla/5.0 (Windows NT 10.0; Win64; x64) AppleWebKit/537.36 (KHTML, like Gecko) Chrome/119.0.0.0 Safari/537.36" etag="Fno__Ml2X_9cH2_nDjCp" version="22.1.0" type="device">
  <diagram name="PÃ¡gina-1" id="UpYWevlrEi2X_l2-e6an">
    <mxGraphModel dx="1500" dy="830" grid="1" gridSize="10" guides="1" tooltips="1" connect="1" arrows="1" fold="1" page="1" pageScale="1" pageWidth="827" pageHeight="1169" math="0" shadow="0">
      <root>
        <mxCell id="0" />
        <mxCell id="1" parent="0" />
        <mxCell id="QqHG2MM40jIqoqFXRzVP-5" style="edgeStyle=orthogonalEdgeStyle;rounded=0;orthogonalLoop=1;jettySize=auto;html=1;entryX=0.5;entryY=0;entryDx=0;entryDy=0;" edge="1" parent="1" source="QqHG2MM40jIqoqFXRzVP-1" target="QqHG2MM40jIqoqFXRzVP-4">
          <mxGeometry relative="1" as="geometry" />
        </mxCell>
        <mxCell id="QqHG2MM40jIqoqFXRzVP-1" value="1" style="ellipse;whiteSpace=wrap;html=1;aspect=fixed;" vertex="1" parent="1">
          <mxGeometry x="120" y="40" width="80" height="80" as="geometry" />
        </mxCell>
        <mxCell id="QqHG2MM40jIqoqFXRzVP-2" value="48seg" style="text;html=1;strokeColor=none;fillColor=none;align=center;verticalAlign=middle;whiteSpace=wrap;rounded=0;" vertex="1" parent="1">
          <mxGeometry x="30" y="65" width="60" height="30" as="geometry" />
        </mxCell>
        <mxCell id="QqHG2MM40jIqoqFXRzVP-3" value="Corte de tomate y queso" style="text;html=1;strokeColor=none;fillColor=none;align=center;verticalAlign=middle;whiteSpace=wrap;rounded=0;" vertex="1" parent="1">
          <mxGeometry x="230" y="65" width="60" height="30" as="geometry" />
        </mxCell>
        <mxCell id="QqHG2MM40jIqoqFXRzVP-9" style="edgeStyle=orthogonalEdgeStyle;rounded=0;orthogonalLoop=1;jettySize=auto;html=1;entryX=0.5;entryY=0;entryDx=0;entryDy=0;" edge="1" parent="1" source="QqHG2MM40jIqoqFXRzVP-4" target="QqHG2MM40jIqoqFXRzVP-8">
          <mxGeometry relative="1" as="geometry" />
        </mxCell>
        <mxCell id="QqHG2MM40jIqoqFXRzVP-4" value="2" style="ellipse;whiteSpace=wrap;html=1;aspect=fixed;" vertex="1" parent="1">
          <mxGeometry x="120" y="180" width="80" height="80" as="geometry" />
        </mxCell>
        <mxCell id="QqHG2MM40jIqoqFXRzVP-6" value="colocacion de lechuga, tomate y queso" style="text;html=1;strokeColor=none;fillColor=none;align=center;verticalAlign=middle;whiteSpace=wrap;rounded=0;" vertex="1" parent="1">
          <mxGeometry x="230" y="220" width="60" height="30" as="geometry" />
        </mxCell>
        <mxCell id="QqHG2MM40jIqoqFXRzVP-7" value="30seg" style="text;html=1;strokeColor=none;fillColor=none;align=center;verticalAlign=middle;whiteSpace=wrap;rounded=0;" vertex="1" parent="1">
          <mxGeometry x="30" y="205" width="60" height="30" as="geometry" />
        </mxCell>
        <mxCell id="QqHG2MM40jIqoqFXRzVP-13" style="edgeStyle=orthogonalEdgeStyle;rounded=0;orthogonalLoop=1;jettySize=auto;html=1;entryX=0;entryY=0.5;entryDx=0;entryDy=0;" edge="1" parent="1" source="QqHG2MM40jIqoqFXRzVP-8" target="QqHG2MM40jIqoqFXRzVP-12">
          <mxGeometry relative="1" as="geometry" />
        </mxCell>
        <mxCell id="QqHG2MM40jIqoqFXRzVP-8" value="3" style="ellipse;whiteSpace=wrap;html=1;aspect=fixed;" vertex="1" parent="1">
          <mxGeometry x="120" y="320" width="80" height="80" as="geometry" />
        </mxCell>
        <mxCell id="QqHG2MM40jIqoqFXRzVP-10" value="colocacion de aderezo" style="text;html=1;strokeColor=none;fillColor=none;align=center;verticalAlign=middle;whiteSpace=wrap;rounded=0;" vertex="1" parent="1">
          <mxGeometry x="230" y="345" width="60" height="30" as="geometry" />
        </mxCell>
        <mxCell id="QqHG2MM40jIqoqFXRzVP-11" value="15seg" style="text;html=1;strokeColor=none;fillColor=none;align=center;verticalAlign=middle;whiteSpace=wrap;rounded=0;" vertex="1" parent="1">
          <mxGeometry x="30" y="345" width="60" height="30" as="geometry" />
        </mxCell>
        <mxCell id="QqHG2MM40jIqoqFXRzVP-17" style="edgeStyle=orthogonalEdgeStyle;rounded=0;orthogonalLoop=1;jettySize=auto;html=1;entryX=0.5;entryY=0;entryDx=0;entryDy=0;" edge="1" parent="1" source="QqHG2MM40jIqoqFXRzVP-12" target="QqHG2MM40jIqoqFXRzVP-15">
          <mxGeometry relative="1" as="geometry" />
        </mxCell>
        <mxCell id="QqHG2MM40jIqoqFXRzVP-12" value="4" style="triangle;whiteSpace=wrap;html=1;rotation=90;" vertex="1" parent="1">
          <mxGeometry x="130" y="440" width="60" height="80" as="geometry" />
        </mxCell>
        <mxCell id="QqHG2MM40jIqoqFXRzVP-14" value="Colocacion en bandeja final" style="text;html=1;strokeColor=none;fillColor=none;align=center;verticalAlign=middle;whiteSpace=wrap;rounded=0;" vertex="1" parent="1">
          <mxGeometry x="230" y="465" width="60" height="30" as="geometry" />
        </mxCell>
        <mxCell id="QqHG2MM40jIqoqFXRzVP-15" value="5" style="whiteSpace=wrap;html=1;aspect=fixed;" vertex="1" parent="1">
          <mxGeometry x="120" y="560" width="80" height="80" as="geometry" />
        </mxCell>
        <mxCell id="QqHG2MM40jIqoqFXRzVP-16" value="inspeccion finalizacion" style="text;html=1;strokeColor=none;fillColor=none;align=center;verticalAlign=middle;whiteSpace=wrap;rounded=0;" vertex="1" parent="1">
          <mxGeometry x="230" y="585" width="60" height="30" as="geometry" />
        </mxCell>
        <mxCell id="QqHG2MM40jIqoqFXRzVP-29" style="edgeStyle=orthogonalEdgeStyle;rounded=0;orthogonalLoop=1;jettySize=auto;html=1;entryX=0.5;entryY=0;entryDx=0;entryDy=0;" edge="1" parent="1" source="QqHG2MM40jIqoqFXRzVP-19" target="QqHG2MM40jIqoqFXRzVP-21">
          <mxGeometry relative="1" as="geometry" />
        </mxCell>
        <mxCell id="QqHG2MM40jIqoqFXRzVP-19" value="6" style="ellipse;whiteSpace=wrap;html=1;aspect=fixed;" vertex="1" parent="1">
          <mxGeometry x="450" y="40" width="80" height="80" as="geometry" />
        </mxCell>
        <mxCell id="QqHG2MM40jIqoqFXRzVP-20" value="Corte pan" style="text;html=1;strokeColor=none;fillColor=none;align=center;verticalAlign=middle;whiteSpace=wrap;rounded=0;" vertex="1" parent="1">
          <mxGeometry x="560" y="65" width="60" height="30" as="geometry" />
        </mxCell>
        <mxCell id="QqHG2MM40jIqoqFXRzVP-30" value="" style="edgeStyle=orthogonalEdgeStyle;rounded=0;orthogonalLoop=1;jettySize=auto;html=1;" edge="1" parent="1" source="QqHG2MM40jIqoqFXRzVP-21" target="QqHG2MM40jIqoqFXRzVP-23">
          <mxGeometry relative="1" as="geometry" />
        </mxCell>
        <mxCell id="QqHG2MM40jIqoqFXRzVP-21" value="7" style="ellipse;whiteSpace=wrap;html=1;aspect=fixed;" vertex="1" parent="1">
          <mxGeometry x="450" y="180" width="80" height="80" as="geometry" />
        </mxCell>
        <mxCell id="QqHG2MM40jIqoqFXRzVP-22" value="Colocacion de aderezos" style="text;html=1;strokeColor=none;fillColor=none;align=center;verticalAlign=middle;whiteSpace=wrap;rounded=0;" vertex="1" parent="1">
          <mxGeometry x="560" y="205" width="60" height="30" as="geometry" />
        </mxCell>
        <mxCell id="QqHG2MM40jIqoqFXRzVP-31" value="" style="edgeStyle=orthogonalEdgeStyle;rounded=0;orthogonalLoop=1;jettySize=auto;html=1;" edge="1" parent="1" source="QqHG2MM40jIqoqFXRzVP-23" target="QqHG2MM40jIqoqFXRzVP-25">
          <mxGeometry relative="1" as="geometry" />
        </mxCell>
        <mxCell id="QqHG2MM40jIqoqFXRzVP-23" value="8" style="ellipse;whiteSpace=wrap;html=1;aspect=fixed;" vertex="1" parent="1">
          <mxGeometry x="450" y="320" width="80" height="80" as="geometry" />
        </mxCell>
        <mxCell id="QqHG2MM40jIqoqFXRzVP-24" value="Colocacion de pepino, jamon, queso y cebolla" style="text;html=1;strokeColor=none;fillColor=none;align=center;verticalAlign=middle;whiteSpace=wrap;rounded=0;" vertex="1" parent="1">
          <mxGeometry x="560" y="345" width="60" height="30" as="geometry" />
        </mxCell>
        <mxCell id="QqHG2MM40jIqoqFXRzVP-52" value="" style="edgeStyle=orthogonalEdgeStyle;rounded=0;orthogonalLoop=1;jettySize=auto;html=1;" edge="1" parent="1" source="QqHG2MM40jIqoqFXRzVP-25" target="QqHG2MM40jIqoqFXRzVP-47">
          <mxGeometry relative="1" as="geometry" />
        </mxCell>
        <mxCell id="QqHG2MM40jIqoqFXRzVP-25" value="9" style="triangle;whiteSpace=wrap;html=1;rotation=90;" vertex="1" parent="1">
          <mxGeometry x="460" y="440" width="60" height="80" as="geometry" />
        </mxCell>
        <mxCell id="QqHG2MM40jIqoqFXRzVP-26" value="Colocacion en bandeja final" style="text;html=1;strokeColor=none;fillColor=none;align=center;verticalAlign=middle;whiteSpace=wrap;rounded=0;" vertex="1" parent="1">
          <mxGeometry x="560" y="465" width="60" height="30" as="geometry" />
        </mxCell>
        <mxCell id="QqHG2MM40jIqoqFXRzVP-43" style="edgeStyle=orthogonalEdgeStyle;rounded=0;orthogonalLoop=1;jettySize=auto;html=1;entryX=0.5;entryY=0;entryDx=0;entryDy=0;" edge="1" parent="1" source="QqHG2MM40jIqoqFXRzVP-33" target="QqHG2MM40jIqoqFXRzVP-40">
          <mxGeometry relative="1" as="geometry" />
        </mxCell>
        <mxCell id="QqHG2MM40jIqoqFXRzVP-33" value="11" style="ellipse;whiteSpace=wrap;html=1;aspect=fixed;" vertex="1" parent="1">
          <mxGeometry x="760" y="40" width="80" height="80" as="geometry" />
        </mxCell>
        <mxCell id="QqHG2MM40jIqoqFXRzVP-34" value="26.47 seg" style="text;html=1;strokeColor=none;fillColor=none;align=center;verticalAlign=middle;whiteSpace=wrap;rounded=0;" vertex="1" parent="1">
          <mxGeometry x="370" y="65" width="60" height="30" as="geometry" />
        </mxCell>
        <mxCell id="QqHG2MM40jIqoqFXRzVP-35" value="29.46seg" style="text;html=1;strokeColor=none;fillColor=none;align=center;verticalAlign=middle;whiteSpace=wrap;rounded=0;" vertex="1" parent="1">
          <mxGeometry x="370" y="205" width="60" height="30" as="geometry" />
        </mxCell>
        <mxCell id="QqHG2MM40jIqoqFXRzVP-36" value="5.99seg" style="text;html=1;strokeColor=none;fillColor=none;align=center;verticalAlign=middle;whiteSpace=wrap;rounded=0;" vertex="1" parent="1">
          <mxGeometry x="370" y="345" width="60" height="30" as="geometry" />
        </mxCell>
        <mxCell id="QqHG2MM40jIqoqFXRzVP-38" value="3.47seg" style="text;html=1;strokeColor=none;fillColor=none;align=center;verticalAlign=middle;whiteSpace=wrap;rounded=0;" vertex="1" parent="1">
          <mxGeometry x="690" y="65" width="60" height="30" as="geometry" />
        </mxCell>
        <mxCell id="QqHG2MM40jIqoqFXRzVP-39" value="Meidcion yogurt" style="text;html=1;strokeColor=none;fillColor=none;align=center;verticalAlign=middle;whiteSpace=wrap;rounded=0;" vertex="1" parent="1">
          <mxGeometry x="860" y="65" width="60" height="30" as="geometry" />
        </mxCell>
        <mxCell id="QqHG2MM40jIqoqFXRzVP-46" style="edgeStyle=orthogonalEdgeStyle;rounded=0;orthogonalLoop=1;jettySize=auto;html=1;entryX=0;entryY=0.5;entryDx=0;entryDy=0;" edge="1" parent="1" source="QqHG2MM40jIqoqFXRzVP-40" target="QqHG2MM40jIqoqFXRzVP-44">
          <mxGeometry relative="1" as="geometry" />
        </mxCell>
        <mxCell id="QqHG2MM40jIqoqFXRzVP-40" value="12" style="ellipse;whiteSpace=wrap;html=1;aspect=fixed;" vertex="1" parent="1">
          <mxGeometry x="760" y="180" width="80" height="80" as="geometry" />
        </mxCell>
        <mxCell id="QqHG2MM40jIqoqFXRzVP-41" value="10seg" style="text;html=1;strokeColor=none;fillColor=none;align=center;verticalAlign=middle;whiteSpace=wrap;rounded=0;" vertex="1" parent="1">
          <mxGeometry x="690" y="205" width="60" height="30" as="geometry" />
        </mxCell>
        <mxCell id="QqHG2MM40jIqoqFXRzVP-42" value="colocacion granola y fruta" style="text;html=1;strokeColor=none;fillColor=none;align=center;verticalAlign=middle;whiteSpace=wrap;rounded=0;" vertex="1" parent="1">
          <mxGeometry x="860" y="205" width="60" height="30" as="geometry" />
        </mxCell>
        <mxCell id="QqHG2MM40jIqoqFXRzVP-51" value="" style="edgeStyle=orthogonalEdgeStyle;rounded=0;orthogonalLoop=1;jettySize=auto;html=1;" edge="1" parent="1" source="QqHG2MM40jIqoqFXRzVP-44" target="QqHG2MM40jIqoqFXRzVP-49">
          <mxGeometry relative="1" as="geometry" />
        </mxCell>
        <mxCell id="QqHG2MM40jIqoqFXRzVP-44" value="13" style="triangle;whiteSpace=wrap;html=1;rotation=90;" vertex="1" parent="1">
          <mxGeometry x="770" y="310" width="60" height="80" as="geometry" />
        </mxCell>
        <mxCell id="QqHG2MM40jIqoqFXRzVP-45" value="Colocacion en bandeja final" style="text;html=1;strokeColor=none;fillColor=none;align=center;verticalAlign=middle;whiteSpace=wrap;rounded=0;" vertex="1" parent="1">
          <mxGeometry x="870" y="335" width="60" height="30" as="geometry" />
        </mxCell>
        <mxCell id="QqHG2MM40jIqoqFXRzVP-47" value="10" style="whiteSpace=wrap;html=1;aspect=fixed;" vertex="1" parent="1">
          <mxGeometry x="450" y="545" width="80" height="80" as="geometry" />
        </mxCell>
        <mxCell id="QqHG2MM40jIqoqFXRzVP-48" value="inspeccion finalizacion" style="text;html=1;strokeColor=none;fillColor=none;align=center;verticalAlign=middle;whiteSpace=wrap;rounded=0;" vertex="1" parent="1">
          <mxGeometry x="560" y="570" width="60" height="30" as="geometry" />
        </mxCell>
        <mxCell id="QqHG2MM40jIqoqFXRzVP-49" value="14" style="whiteSpace=wrap;html=1;aspect=fixed;" vertex="1" parent="1">
          <mxGeometry x="760" y="415" width="80" height="80" as="geometry" />
        </mxCell>
        <mxCell id="QqHG2MM40jIqoqFXRzVP-50" value="inspeccion finalizacion" style="text;html=1;strokeColor=none;fillColor=none;align=center;verticalAlign=middle;whiteSpace=wrap;rounded=0;" vertex="1" parent="1">
          <mxGeometry x="870" y="440" width="60" height="30" as="geometry" />
        </mxCell>
        <mxCell id="QqHG2MM40jIqoqFXRzVP-61" value="" style="edgeStyle=orthogonalEdgeStyle;rounded=0;orthogonalLoop=1;jettySize=auto;html=1;" edge="1" parent="1" source="QqHG2MM40jIqoqFXRzVP-53" target="QqHG2MM40jIqoqFXRzVP-59">
          <mxGeometry relative="1" as="geometry" />
        </mxCell>
        <mxCell id="QqHG2MM40jIqoqFXRzVP-53" value="15" style="triangle;whiteSpace=wrap;html=1;rotation=90;" vertex="1" parent="1">
          <mxGeometry x="1115" y="40" width="60" height="80" as="geometry" />
        </mxCell>
        <mxCell id="QqHG2MM40jIqoqFXRzVP-54" value="ENSALADA" style="text;html=1;strokeColor=none;fillColor=none;align=center;verticalAlign=middle;whiteSpace=wrap;rounded=0;" vertex="1" parent="1">
          <mxGeometry x="130" width="60" height="30" as="geometry" />
        </mxCell>
        <mxCell id="QqHG2MM40jIqoqFXRzVP-55" value="SANDWISH" style="text;html=1;strokeColor=none;fillColor=none;align=center;verticalAlign=middle;whiteSpace=wrap;rounded=0;" vertex="1" parent="1">
          <mxGeometry x="460" width="60" height="30" as="geometry" />
        </mxCell>
        <mxCell id="QqHG2MM40jIqoqFXRzVP-56" value="POSTRE" style="text;html=1;strokeColor=none;fillColor=none;align=center;verticalAlign=middle;whiteSpace=wrap;rounded=0;" vertex="1" parent="1">
          <mxGeometry x="770" width="60" height="30" as="geometry" />
        </mxCell>
        <mxCell id="QqHG2MM40jIqoqFXRzVP-57" value="ALLMUERZO" style="text;html=1;strokeColor=none;fillColor=none;align=center;verticalAlign=middle;whiteSpace=wrap;rounded=0;" vertex="1" parent="1">
          <mxGeometry x="1115" width="60" height="30" as="geometry" />
        </mxCell>
        <mxCell id="QqHG2MM40jIqoqFXRzVP-58" value="Toma de ensalada" style="text;html=1;strokeColor=none;fillColor=none;align=center;verticalAlign=middle;whiteSpace=wrap;rounded=0;" vertex="1" parent="1">
          <mxGeometry x="1219" y="65" width="60" height="30" as="geometry" />
        </mxCell>
        <mxCell id="QqHG2MM40jIqoqFXRzVP-64" value="" style="edgeStyle=orthogonalEdgeStyle;rounded=0;orthogonalLoop=1;jettySize=auto;html=1;" edge="1" parent="1" source="QqHG2MM40jIqoqFXRzVP-59" target="QqHG2MM40jIqoqFXRzVP-62">
          <mxGeometry relative="1" as="geometry" />
        </mxCell>
        <mxCell id="QqHG2MM40jIqoqFXRzVP-59" value="16" style="ellipse;whiteSpace=wrap;html=1;aspect=fixed;" vertex="1" parent="1">
          <mxGeometry x="1105" y="155" width="80" height="80" as="geometry" />
        </mxCell>
        <mxCell id="QqHG2MM40jIqoqFXRzVP-60" value="Servido de ensalada" style="text;html=1;strokeColor=none;fillColor=none;align=center;verticalAlign=middle;whiteSpace=wrap;rounded=0;" vertex="1" parent="1">
          <mxGeometry x="1219" y="185" width="60" height="30" as="geometry" />
        </mxCell>
        <mxCell id="QqHG2MM40jIqoqFXRzVP-68" value="" style="edgeStyle=orthogonalEdgeStyle;rounded=0;orthogonalLoop=1;jettySize=auto;html=1;" edge="1" parent="1" source="QqHG2MM40jIqoqFXRzVP-62" target="QqHG2MM40jIqoqFXRzVP-65">
          <mxGeometry relative="1" as="geometry" />
        </mxCell>
        <mxCell id="QqHG2MM40jIqoqFXRzVP-62" value="17" style="triangle;whiteSpace=wrap;html=1;rotation=90;" vertex="1" parent="1">
          <mxGeometry x="1115" y="270" width="60" height="80" as="geometry" />
        </mxCell>
        <mxCell id="QqHG2MM40jIqoqFXRzVP-63" value="toma de sandwish" style="text;html=1;strokeColor=none;fillColor=none;align=center;verticalAlign=middle;whiteSpace=wrap;rounded=0;" vertex="1" parent="1">
          <mxGeometry x="1219" y="295" width="60" height="30" as="geometry" />
        </mxCell>
        <mxCell id="QqHG2MM40jIqoqFXRzVP-71" value="" style="edgeStyle=orthogonalEdgeStyle;rounded=0;orthogonalLoop=1;jettySize=auto;html=1;" edge="1" parent="1" source="QqHG2MM40jIqoqFXRzVP-65" target="QqHG2MM40jIqoqFXRzVP-69">
          <mxGeometry relative="1" as="geometry" />
        </mxCell>
        <mxCell id="QqHG2MM40jIqoqFXRzVP-65" value="18" style="ellipse;whiteSpace=wrap;html=1;aspect=fixed;" vertex="1" parent="1">
          <mxGeometry x="1105" y="370" width="80" height="80" as="geometry" />
        </mxCell>
        <mxCell id="QqHG2MM40jIqoqFXRzVP-66" value="Envoltura de sandwish" style="text;html=1;strokeColor=none;fillColor=none;align=center;verticalAlign=middle;whiteSpace=wrap;rounded=0;" vertex="1" parent="1">
          <mxGeometry x="1219" y="395" width="60" height="30" as="geometry" />
        </mxCell>
        <mxCell id="QqHG2MM40jIqoqFXRzVP-67" value="3.47seg" style="text;html=1;strokeColor=none;fillColor=none;align=center;verticalAlign=middle;whiteSpace=wrap;rounded=0;" vertex="1" parent="1">
          <mxGeometry x="1020" y="395" width="60" height="30" as="geometry" />
        </mxCell>
        <mxCell id="QqHG2MM40jIqoqFXRzVP-74" value="" style="edgeStyle=orthogonalEdgeStyle;rounded=0;orthogonalLoop=1;jettySize=auto;html=1;" edge="1" parent="1" source="QqHG2MM40jIqoqFXRzVP-69" target="QqHG2MM40jIqoqFXRzVP-72">
          <mxGeometry relative="1" as="geometry" />
        </mxCell>
        <mxCell id="QqHG2MM40jIqoqFXRzVP-69" value="19" style="triangle;whiteSpace=wrap;html=1;rotation=90;" vertex="1" parent="1">
          <mxGeometry x="1115" y="505" width="60" height="80" as="geometry" />
        </mxCell>
        <mxCell id="QqHG2MM40jIqoqFXRzVP-70" value="Toma de postre" style="text;html=1;strokeColor=none;fillColor=none;align=center;verticalAlign=middle;whiteSpace=wrap;rounded=0;" vertex="1" parent="1">
          <mxGeometry x="1219" y="530" width="60" height="30" as="geometry" />
        </mxCell>
        <mxCell id="QqHG2MM40jIqoqFXRzVP-77" value="" style="edgeStyle=orthogonalEdgeStyle;rounded=0;orthogonalLoop=1;jettySize=auto;html=1;" edge="1" parent="1" source="QqHG2MM40jIqoqFXRzVP-72" target="QqHG2MM40jIqoqFXRzVP-75">
          <mxGeometry relative="1" as="geometry" />
        </mxCell>
        <mxCell id="QqHG2MM40jIqoqFXRzVP-72" value="20" style="ellipse;whiteSpace=wrap;html=1;aspect=fixed;" vertex="1" parent="1">
          <mxGeometry x="1105" y="625" width="80" height="80" as="geometry" />
        </mxCell>
        <mxCell id="QqHG2MM40jIqoqFXRzVP-73" value="Servido de posrte" style="text;html=1;strokeColor=none;fillColor=none;align=center;verticalAlign=middle;whiteSpace=wrap;rounded=0;" vertex="1" parent="1">
          <mxGeometry x="1211" y="650" width="60" height="30" as="geometry" />
        </mxCell>
        <mxCell id="QqHG2MM40jIqoqFXRzVP-75" value="21" style="whiteSpace=wrap;html=1;aspect=fixed;" vertex="1" parent="1">
          <mxGeometry x="1105" y="760" width="80" height="80" as="geometry" />
        </mxCell>
        <mxCell id="QqHG2MM40jIqoqFXRzVP-76" value="Inspeccion de almuerzo" style="text;html=1;strokeColor=none;fillColor=none;align=center;verticalAlign=middle;whiteSpace=wrap;rounded=0;" vertex="1" parent="1">
          <mxGeometry x="1215" y="785" width="60" height="30" as="geometry" />
        </mxCell>
        <mxCell id="QqHG2MM40jIqoqFXRzVP-78" value="" style="rounded=0;whiteSpace=wrap;html=1;" vertex="1" parent="1">
          <mxGeometry x="40" y="720" width="590" height="390" as="geometry" />
        </mxCell>
        <mxCell id="QqHG2MM40jIqoqFXRzVP-79" value="" style="ellipse;whiteSpace=wrap;html=1;aspect=fixed;" vertex="1" parent="1">
          <mxGeometry x="80" y="735" width="65" height="65" as="geometry" />
        </mxCell>
        <mxCell id="QqHG2MM40jIqoqFXRzVP-80" value="" style="triangle;whiteSpace=wrap;html=1;rotation=90;" vertex="1" parent="1">
          <mxGeometry x="80" y="840" width="60" height="80" as="geometry" />
        </mxCell>
        <mxCell id="QqHG2MM40jIqoqFXRzVP-81" value="" style="whiteSpace=wrap;html=1;aspect=fixed;" vertex="1" parent="1">
          <mxGeometry x="70" y="940" width="80" height="80" as="geometry" />
        </mxCell>
        <mxCell id="QqHG2MM40jIqoqFXRzVP-82" value="" style="endArrow=none;html=1;rounded=0;exitX=0;exitY=0.25;exitDx=0;exitDy=0;entryX=1;entryY=0.25;entryDx=0;entryDy=0;" edge="1" parent="1" source="QqHG2MM40jIqoqFXRzVP-78" target="QqHG2MM40jIqoqFXRzVP-78">
          <mxGeometry width="50" height="50" relative="1" as="geometry">
            <mxPoint x="620" y="840" as="sourcePoint" />
            <mxPoint x="670" y="790" as="targetPoint" />
          </mxGeometry>
        </mxCell>
        <mxCell id="QqHG2MM40jIqoqFXRzVP-83" value="" style="endArrow=none;html=1;rounded=0;exitX=0;exitY=0.25;exitDx=0;exitDy=0;" edge="1" parent="1">
          <mxGeometry width="50" height="50" relative="1" as="geometry">
            <mxPoint x="40" y="920" as="sourcePoint" />
            <mxPoint x="630" y="920" as="targetPoint" />
          </mxGeometry>
        </mxCell>
        <mxCell id="QqHG2MM40jIqoqFXRzVP-84" value="" style="endArrow=none;html=1;rounded=0;exitX=0;exitY=0.25;exitDx=0;exitDy=0;" edge="1" parent="1">
          <mxGeometry width="50" height="50" relative="1" as="geometry">
            <mxPoint x="40" y="1040" as="sourcePoint" />
            <mxPoint x="630" y="1040" as="targetPoint" />
          </mxGeometry>
        </mxCell>
        <mxCell id="QqHG2MM40jIqoqFXRzVP-88" value="" style="endArrow=none;html=1;rounded=0;entryX=0.25;entryY=0;entryDx=0;entryDy=0;exitX=0.25;exitY=1;exitDx=0;exitDy=0;" edge="1" parent="1" source="QqHG2MM40jIqoqFXRzVP-78" target="QqHG2MM40jIqoqFXRzVP-78">
          <mxGeometry width="50" height="50" relative="1" as="geometry">
            <mxPoint x="620" y="840" as="sourcePoint" />
            <mxPoint x="670" y="790" as="targetPoint" />
          </mxGeometry>
        </mxCell>
        <mxCell id="QqHG2MM40jIqoqFXRzVP-89" value="NUMERO DE OPERACIONES" style="text;html=1;strokeColor=none;fillColor=none;align=center;verticalAlign=middle;whiteSpace=wrap;rounded=0;fontSize=15;" vertex="1" parent="1">
          <mxGeometry x="225" y="760" width="220" height="30" as="geometry" />
        </mxCell>
        <mxCell id="QqHG2MM40jIqoqFXRzVP-90" value="NUMERO DE ALMACENADO" style="text;html=1;strokeColor=none;fillColor=none;align=center;verticalAlign=middle;whiteSpace=wrap;rounded=0;fontSize=15;" vertex="1" parent="1">
          <mxGeometry x="210" y="865" width="230" height="30" as="geometry" />
        </mxCell>
        <mxCell id="QqHG2MM40jIqoqFXRzVP-91" value="" style="endArrow=none;html=1;rounded=0;entryX=0.75;entryY=0;entryDx=0;entryDy=0;exitX=0.75;exitY=1;exitDx=0;exitDy=0;" edge="1" parent="1" source="QqHG2MM40jIqoqFXRzVP-78" target="QqHG2MM40jIqoqFXRzVP-78">
          <mxGeometry width="50" height="50" relative="1" as="geometry">
            <mxPoint x="422" y="1210" as="sourcePoint" />
            <mxPoint x="420" y="720" as="targetPoint" />
          </mxGeometry>
        </mxCell>
        <mxCell id="QqHG2MM40jIqoqFXRzVP-92" value="NUMERO DE INSPECCIONES" style="text;html=1;strokeColor=none;fillColor=none;align=center;verticalAlign=middle;whiteSpace=wrap;rounded=0;fontSize=15;" vertex="1" parent="1">
          <mxGeometry x="220" y="962.5" width="230" height="30" as="geometry" />
        </mxCell>
        <mxCell id="QqHG2MM40jIqoqFXRzVP-93" value="11" style="text;html=1;strokeColor=none;fillColor=none;align=center;verticalAlign=middle;whiteSpace=wrap;rounded=0;fontSize=23;" vertex="1" parent="1">
          <mxGeometry x="520" y="760" width="60" height="30" as="geometry" />
        </mxCell>
        <mxCell id="QqHG2MM40jIqoqFXRzVP-94" value="6" style="text;html=1;strokeColor=none;fillColor=none;align=center;verticalAlign=middle;whiteSpace=wrap;rounded=0;fontSize=21;" vertex="1" parent="1">
          <mxGeometry x="520" y="865" width="60" height="30" as="geometry" />
        </mxCell>
        <mxCell id="QqHG2MM40jIqoqFXRzVP-95" value="4" style="text;html=1;strokeColor=none;fillColor=none;align=center;verticalAlign=middle;whiteSpace=wrap;rounded=0;fontSize=22;" vertex="1" parent="1">
          <mxGeometry x="520" y="960" width="60" height="35" as="geometry" />
        </mxCell>
        <mxCell id="QqHG2MM40jIqoqFXRzVP-96" value="TIEMPO TOTAL DE OPERACIONES" style="text;html=1;strokeColor=none;fillColor=none;align=center;verticalAlign=middle;whiteSpace=wrap;rounded=0;fontSize=15;" vertex="1" parent="1">
          <mxGeometry x="230" y="1060" width="210" height="30" as="geometry" />
        </mxCell>
        <mxCell id="QqHG2MM40jIqoqFXRzVP-97" value="2.87 min" style="text;html=1;strokeColor=none;fillColor=none;align=center;verticalAlign=middle;whiteSpace=wrap;rounded=0;fontSize=15;" vertex="1" parent="1">
          <mxGeometry x="520" y="1060" width="60" height="30" as="geometry" />
        </mxCell>
      </root>
    </mxGraphModel>
  </diagram>
</mxfile>
